<?xml version="1.0" encoding="utf-8"?>
<!-- Generator: Adobe Illustrator 24.1.2, SVG Export Plug-In . SVG Version: 6.00 Build 0)  -->
<svg version="1.1" id="Layer_1" xmlns="http://www.w3.org/2000/svg" xmlns:xlink="http://www.w3.org/1999/xlink" x="0px" y="0px"
	 viewBox="0 0 92.07 79.88" style="enable-background:new 0 0 92.07 79.88;" xml:space="preserve">
<style type="text/css">
	.st0{fill:#FFFFFF;}
	.st1{fill:#34525C;}
	.st2{fill:#E6E6E6;}
	.st3{fill:#70E9F4;}
</style>
<g>
	<rect x="3.35" y="3.49" class="st0" width="84.46" height="73.97"/>
	<path class="st1" d="M88.47,78.02H2.68V2.93h85.79V78.02z M4.01,76.9h83.13V4.05H4.01V76.9z"/>
</g>
<g>
	<rect x="4.01" y="4.06" class="st2" width="83.14" height="7.95"/>
</g>
<g>
	<path class="st0" d="M11.02,8.03c0,0.83-0.8,1.51-1.78,1.51c-0.98,0-1.78-0.68-1.78-1.51c0-0.83,0.8-1.51,1.78-1.51
		C10.22,6.52,11.02,7.19,11.02,8.03z"/>
	<path class="st1" d="M9.24,10.1c-1.35,0-2.45-0.93-2.45-2.07c0-1.14,1.1-2.07,2.45-2.07c1.35,0,2.45,0.93,2.45,2.07
		C11.68,9.17,10.59,10.1,9.24,10.1z M9.24,7.08c-0.62,0-1.12,0.43-1.12,0.95c0,0.52,0.5,0.95,1.12,0.95c0.62,0,1.12-0.43,1.12-0.95
		C10.36,7.51,9.85,7.08,9.24,7.08z"/>
</g>
<g>
	<path class="st0" d="M17.74,8.03c0,0.83-0.8,1.51-1.78,1.51c-0.98,0-1.78-0.68-1.78-1.51c0-0.83,0.8-1.51,1.78-1.51
		C16.94,6.52,17.74,7.19,17.74,8.03z"/>
	<path class="st1" d="M15.96,10.1c-1.35,0-2.45-0.93-2.45-2.07c0-1.14,1.1-2.07,2.45-2.07s2.45,0.93,2.45,2.07
		C18.41,9.17,17.31,10.1,15.96,10.1z M15.96,7.08c-0.62,0-1.12,0.43-1.12,0.95c0,0.52,0.5,0.95,1.12,0.95s1.12-0.43,1.12-0.95
		C17.08,7.51,16.58,7.08,15.96,7.08z"/>
</g>
<g>
	<path class="st0" d="M24.46,8.03c0,0.83-0.8,1.51-1.78,1.51c-0.98,0-1.78-0.68-1.78-1.51c0-0.83,0.8-1.51,1.78-1.51
		C23.67,6.52,24.46,7.19,24.46,8.03z"/>
	<path class="st1" d="M22.68,10.1c-1.35,0-2.45-0.93-2.45-2.07c0-1.14,1.1-2.07,2.45-2.07c1.35,0,2.45,0.93,2.45,2.07
		C25.13,9.17,24.03,10.1,22.68,10.1z M22.68,7.08c-0.62,0-1.12,0.43-1.12,0.95c0,0.52,0.5,0.95,1.12,0.95
		c0.62,0,1.12-0.43,1.12-0.95C23.8,7.51,23.3,7.08,22.68,7.08z"/>
</g>
<g>
	<rect x="7.45" y="28.16" class="st3" width="76.54" height="17.3"/>
</g>
<g>
	<g>
		<rect x="7.86" y="49.89" class="st0" width="19.76" height="16.74"/>
		<path class="st1" d="M28.29,67.19H7.2V49.33h21.09V67.19z M8.53,66.07h18.43V50.45H8.53V66.07z"/>
	</g>
	<g>
		<line class="st0" x1="7.86" y1="49.89" x2="27.62" y2="66.63"/>
		<polygon class="st1" points="27.15,67.03 7.39,50.29 8.33,49.49 28.09,66.23 		"/>
	</g>
	<g>
		<line class="st0" x1="7.86" y1="66.63" x2="27.62" y2="49.89"/>
		<polygon class="st1" points="8.33,67.03 7.39,66.23 27.15,49.49 28.09,50.29 		"/>
	</g>
</g>
<g>
	<g>
		<rect x="35.83" y="49.89" class="st0" width="19.76" height="16.74"/>
		<path class="st1" d="M56.25,67.19H35.16V49.33h21.09V67.19z M36.49,66.07h18.43V50.45H36.49V66.07z"/>
	</g>
	<g>
		<line class="st0" x1="35.83" y1="49.89" x2="55.59" y2="66.63"/>
		<polygon class="st1" points="55.12,67.03 35.36,50.29 36.3,49.49 56.06,66.23 		"/>
	</g>
	<g>
		<line class="st0" x1="35.83" y1="66.63" x2="55.59" y2="49.89"/>
		<polygon class="st1" points="36.3,67.03 35.36,66.23 55.12,49.49 56.06,50.29 		"/>
	</g>
</g>
<g>
	<g>
		<rect x="63.79" y="49.89" class="st0" width="19.76" height="16.74"/>
		<path class="st1" d="M84.22,67.19H63.13V49.33h21.09V67.19z M64.46,66.07h18.43V50.45H64.46V66.07z"/>
	</g>
	<g>
		<line class="st0" x1="63.79" y1="49.89" x2="83.55" y2="66.63"/>
		<polygon class="st1" points="83.08,67.03 63.32,50.29 64.26,49.49 84.02,66.23 		"/>
	</g>
	<g>
		<line class="st0" x1="63.79" y1="66.63" x2="83.55" y2="49.89"/>
		<polygon class="st1" points="64.26,67.03 63.32,66.23 83.08,49.49 84.02,50.29 		"/>
	</g>
</g>
<g>
	<rect x="7.45" y="69.63" class="st1" width="17.01" height="1.16"/>
</g>
<g>
	<rect x="7.45" y="72.24" class="st1" width="20.93" height="1.16"/>
</g>
<g>
	<rect x="35.08" y="69.63" class="st1" width="20.93" height="1.16"/>
</g>
<g>
	<rect x="35.08" y="72.24" class="st1" width="15.44" height="1.16"/>
</g>
<g>
	<rect x="45.72" y="33.96" class="st1" width="32.63" height="1.16"/>
</g>
<g>
	<rect x="45.72" y="36.57" class="st1" width="24.07" height="1.16"/>
</g>
<g>
	<rect x="62.71" y="69.63" class="st1" width="16.64" height="1.16"/>
</g>
<g>
	<rect x="62.71" y="72.24" class="st1" width="20.93" height="1.16"/>
</g>
<g>
	<rect x="7.86" y="17.27" class="st0" width="76.13" height="4.26"/>
	<path class="st1" d="M84.66,22.09H7.2v-5.38h77.46V22.09z M8.53,20.96h74.8v-3.13H8.53V20.96z"/>
</g>
<g>
	<rect x="67.89" y="18.82" class="st1" width="13.75" height="1.16"/>
</g>
</svg>
